# xmcd CD database file
#
# Track frame offsets:
#	150
#	16839
#	37008
#	61674
#	86699
#	97440
#	115604
#	142573
#	146849
#	158698
#	176451
#	206579
#	236763
#	257984
#	273803
#	306788
#
# Disc length: 4236 seconds
#
# Revision: 1
# Processed by: cddbd v1.5.2PL0 Copyright (c) Steve Scherf et al.
# Submitted via: CDex 1.70beta2
#
DISCID=d6108a10
DTITLE=Klazz Brothers - Play Classics
DYEAR=2006
DGENRE=Jazz
TTITLE0=J.S. Bach Präludium d-Moll
TTITLE1=J.S. Bach Kunst der Fuge
TTITLE2=F. Chopin Prélude e-Moll
TTITLE3=R. Schumann Von fremden Ländern und Menschen
TTITLE4=R. Schumann Haschemann
TTITLE5=R. Schumann Wichtige Begebenheit
TTITLE6=R. Schumann Träumerei
TTITLE7=R. Schumann Ritter vom Steckenpferd
TTITLE8=R. Schumann Kind Im Einschlummern
TTITLE9=R. Schumann Der Dichter Spricht 
TTITLE10=L. van Beethoven Pathétique
TTITLE11=F. Forster Ballade Nr. 1
TTITLE12=L. v. Beethoven Sonate f-Moll
TTITLE13=K. Forster Tack Tick
TTITLE14=L. v. Beethoven Freude schöner Götterfunken
TTITLE15=T. Hahn Tim's Prélude 
EXTD=YEAR: 2006
EXTT0=
EXTT1=
EXTT2=
EXTT3=
EXTT4=
EXTT5=
EXTT6=
EXTT7=
EXTT8=
EXTT9=
EXTT10=
EXTT11=
EXTT12=
EXTT13=
EXTT14=
EXTT15=
PLAYORDER=
